# xmcd CD database file
#
# Track frame offsets:
#	150
#	13554
#	23492
#	37024
#	49596
#	68112
#	77515
#	88238
#	102954
#	119229
#
# Disc length: 1793 seconds
#
# Revision: 0
# Processed by: cddbd v1.5.1PL0 Copyright (c) Steve Scherf et al.
# Submitted via: CDex 1.51
#
DISCID=7a06ff0a
DTITLE=Hunter Sullivan - King For A Day
DYEAR=1998
DGENRE=Jazz
TTITLE0=Just One Of Those Things
TTITLE1=Charade
TTITLE2=Forgetful
TTITLE3=King For A Day
TTITLE4=Love Me
TTITLE5=Please Be Kind
TTITLE6=A Lot Of Livin' To Do
TTITLE7=Forget To Remember
TTITLE8=Rainin'
TTITLE9=Venice Blue
EXTD=YEAR: 1998
EXTT0=
EXTT1=
EXTT2=
EXTT3=
EXTT4=
EXTT5=
EXTT6=
EXTT7=
EXTT8=
EXTT9=
PLAYORDER=
